name Run_30002_GRF.mot
datacolumns 19
datarows 12
range 1.774 1.785
endheader
time	     ground_force_vx	     ground_force_vy	     ground_force_vz	     ground_force_px	     ground_force_py	     ground_force_pz	   l_ground_force_vx	   l_ground_force_vy	   l_ground_force_vz	   l_ground_force_px	   l_ground_force_py	   l_ground_force_pz	     ground_torque_x	     ground_torque_y	     ground_torque_z	   l_ground_torque_x	   l_ground_torque_y	   l_ground_torque_z	
1.774	          0.00000000	          0.00000000	          0.00000000	          0.00000000	          0.00000000	          0.00000000	        130.15515100	       1023.48620600	         -9.55118800	          0.83697200	          0.00000000	         -0.36396000	          0.00000000	          0.00000000	          0.00000000	         -0.00000000	          7.29813400	         -0.00000000	
1.775	          0.00000000	          0.00000000	          0.00000000	          0.00000000	          0.00000000	          0.00000000	        131.65225200	       1005.13604700	        -10.30983700	          0.83465000	          0.00000000	         -0.36395500	          0.00000000	          0.00000000	          0.00000000	         -0.00000000	          7.41496200	         -0.00000000	
1.776	          0.00000000	          0.00000000	          0.00000000	          0.00000000	          0.00000000	          0.00000000	        133.04571500	        986.79083300	        -11.04329000	          0.83232500	          0.00000000	         -0.36394800	          0.00000000	          0.00000000	          0.00000000	         -0.00000000	          7.52453800	         -0.00000000	
1.777	          0.00000000	          0.00000000	          0.00000000	          0.00000000	          0.00000000	          0.00000000	        134.33215300	        968.46215800	        -11.74785900	          0.82999700	          0.00000000	         -0.36393800	          0.00000000	          0.00000000	          0.00000000	         -0.00000000	          7.62656400	         -0.00000000	
1.778	          0.00000000	          0.00000000	          0.00000000	          0.00000000	          0.00000000	          0.00000000	        135.50781300	        950.16113300	        -12.42012600	          0.82766700	          0.00000000	         -0.36392400	          0.00000000	          0.00000000	          0.00000000	         -0.00000000	          7.72076400	         -0.00000000	
1.779	          0.00000000	          0.00000000	          0.00000000	          0.00000000	          0.00000000	          0.00000000	        136.56872600	        931.89856000	        -13.05699200	          0.82533600	          0.00000000	         -0.36390600	          0.00000000	          0.00000000	          0.00000000	         -0.00000000	          7.80689000	         -0.00000000	
1.78	          0.00000000	          0.00000000	          0.00000000	          0.00000000	          0.00000000	          0.00000000	        137.51080300	        913.68481400	        -13.65572300	          0.82300700	          0.00000000	         -0.36388200	          0.00000000	          0.00000000	          0.00000000	         -0.00000000	          7.88471600	         -0.00000000	
1.781	          0.00000000	          0.00000000	          0.00000000	          0.00000000	          0.00000000	          0.00000000	        138.32998700	        895.52978500	        -14.21399600	          0.82068100	          0.00000000	         -0.36385300	          0.00000000	          0.00000000	          0.00000000	         -0.00000000	          7.95404200	         -0.00000000	
1.782	          0.00000000	          0.00000000	          0.00000000	          0.00000000	          0.00000000	          0.00000000	        139.02227800	        877.44281000	        -14.72992600	          0.81835900	          0.00000000	         -0.36381700	          0.00000000	          0.00000000	          0.00000000	         -0.00000000	          8.01469700	         -0.00000000	
1.783	          0.00000000	          0.00000000	          0.00000000	          0.00000000	          0.00000000	          0.00000000	        139.58398400	        859.43286100	        -15.20210100	          0.81604400	          0.00000000	         -0.36377400	          0.00000000	          0.00000000	          0.00000000	         -0.00000000	          8.06653400	         -0.00000000	
1.784	          0.00000000	          0.00000000	          0.00000000	          0.00000000	          0.00000000	          0.00000000	        140.01167300	        841.50842300	        -15.62959200	          0.81373900	          0.00000000	         -0.36372300	          0.00000000	          0.00000000	          0.00000000	         -0.00000000	          8.10943600	         -0.00000000	
1.785	          0.00000000	          0.00000000	          0.00000000	          0.00000000	          0.00000000	          0.00000000	        140.30238300	        823.67730700	        -16.01197100	          0.81144400	          0.00000000	         -0.36366500	          0.00000000	          0.00000000	          0.00000000	         -0.00000000	          8.14331300	         -0.00000000	
